HIERARCHY
ROOT Hips
{
	OFFSET 0.000000 0.000000 0.000000 
	CHANNELS 6 Xposition Yposition Zposition Zrotation Yrotation Xrotation
	JOINT LeftUpLeg
	{
		OFFSET 1.363060 -1.794630 0.839290 
		CHANNELS 3 Zrotation Yrotation Xrotation
		JOINT LeftLeg
		{
			OFFSET 2.448110 -6.726130 0.000000 
			CHANNELS 3 Zrotation Yrotation Xrotation
			JOINT LeftFoot
			{
				OFFSET 2.562200 -7.039590 0.000000 
				CHANNELS 3 Zrotation Yrotation Xrotation
				JOINT LeftToeBase
				{
					OFFSET 0.157640 -0.433110 2.322550 
					CHANNELS 3 Zrotation Yrotation Xrotation
					End Site
					{
						OFFSET 0.000000 0.000000 0.000000 
					}
				}
			}
		}
	}
	JOINT RightUpLeg
	{
		OFFSET -1.305520 -1.794630 0.839290 
		CHANNELS 3 Zrotation Yrotation Xrotation
		JOINT RightLeg
		{
			OFFSET -2.542530 -6.985550 0.000000 
			CHANNELS 3 Zrotation Yrotation Xrotation
			JOINT RightFoot
			{
				OFFSET -2.568260 -7.056230 0.000000 
				CHANNELS 3 Zrotation Yrotation Xrotation
				JOINT RightToeBase
				{
					OFFSET -0.164730 -0.452590 2.363150 
					CHANNELS 3 Zrotation Yrotation Xrotation
					End Site
					{
						OFFSET 0.000000 0.000000 0.000000 
					}
				}
			}
		}
	}
	JOINT Spine
	{
		OFFSET 0.028270 2.035590 -0.193380 
		CHANNELS 3 Zrotation Yrotation Xrotation
		JOINT Spine1
		{
			OFFSET 0.056720 2.048850 -0.042750 
			CHANNELS 3 Zrotation Yrotation Xrotation
			JOINT Neck1
			{
				OFFSET -0.054170 1.746240 0.172020 
				CHANNELS 3 Zrotation Yrotation Xrotation
				JOINT Head
				{
					OFFSET 0.104070 1.761360 -0.123970 
					CHANNELS 3 Zrotation Yrotation Xrotation
					End Site
					{
						OFFSET 0.000000 0.000000 0.000000 
					}
				}
			}
			JOINT LeftArm
			{
				OFFSET 3.362410 1.200890 -0.311210 
				CHANNELS 3 Zrotation Yrotation Xrotation
				JOINT LeftForeArm
				{
					OFFSET 4.983000 -0.000000 -0.000000 
					CHANNELS 3 Zrotation Yrotation Xrotation
					JOINT LeftHand
					{
						OFFSET 3.483560 -0.000000 -0.000000 
						CHANNELS 3 Zrotation Yrotation Xrotation
						JOINT LeftHandIndex1
						{
							OFFSET 0.715260 -0.000000 -0.000000 
							CHANNELS 3 Zrotation Yrotation Xrotation
							End Site
							{
								OFFSET 0.000000 0.000000 0.000000 
							}
						}
					}
				}
			}
			JOINT RightArm
			{
				OFFSET -3.136600 1.374050 -0.404650 
				CHANNELS 3 Zrotation Yrotation Xrotation
				JOINT RightForeArm
				{
					OFFSET -5.241900 -0.000000 -0.000000 
					CHANNELS 3 Zrotation Yrotation Xrotation
					JOINT RightHand
					{
						OFFSET -3.444170 -0.000000 -0.000000 
						CHANNELS 3 Zrotation Yrotation Xrotation
						JOINT RightHandIndex1
						{
							OFFSET -0.622530 -0.000000 -0.000000 
							CHANNELS 3 Zrotation Yrotation Xrotation
							End Site
							{
								OFFSET 0.000000 0.000000 0.000000 
							}
						}
					}
				}
			}
		}
	}
}
MOTION
Frames: 16
Frame Time: 0.041667
0.434052 16.979463 31.453800 3.414111 -45.922436 0.820898 -26.754973 -4.574945 -1.495854 7.765514 13.885856 50.601976 1.694087 -16.252048 27.226178 0.949000 -6.204000 -17.377400 29.128374 10.018028 -27.032585 -5.147583 -12.706647 41.424041 -0.602235 3.621960 -5.506044 -3.082700 -10.827800 31.701200 1.278413 -1.619713 -1.824981 4.888046 -0.657749 -2.599259 2.734155 -1.576389 17.556919 1.140500 -1.313400 8.996100 -86.529994 5.332985 26.024940 11.323112 -24.623493 -3.043516 -0.552102 -0.927816 5.283569 -7.125000 0.000000 0.000000 79.124337 -2.892564 4.871144 -17.520000 28.494297 -5.190390 0.556937 0.228782 10.083022 7.125000 0.000000 0.000000 
0.361727 17.006821 31.546917 3.344578 -45.804146 0.385723 -26.559302 -4.695969 -1.581917 7.957178 14.048637 51.335327 1.555241 -16.057138 25.507008 0.744800 -5.512700 -15.377000 29.221809 9.429049 -25.826194 -5.086156 -12.570144 41.096311 -0.637525 3.781378 -5.885169 -3.060100 -10.791700 31.580600 1.252544 -1.664821 -1.753624 4.819834 -0.687788 -2.575259 2.972848 -2.144212 17.470628 1.331400 -1.611900 8.978600 -86.307894 5.111222 25.962727 11.234741 -24.487942 -3.008289 -0.540337 -0.937381 5.481649 -7.125000 0.000000 0.000000 79.044748 -2.662467 2.618430 -17.216083 28.235295 -5.096658 0.414451 0.077684 13.680743 7.125000 0.000000 0.000000 
0.291391 17.041143 31.622526 2.883182 -45.754885 0.683136 -25.965707 -5.144298 -2.564402 8.272144 14.338051 52.529938 1.428601 -15.564540 23.440797 0.626000 -5.063100 -14.088600 29.647517 9.276578 -24.964272 -4.956588 -12.378047 40.506815 -0.621058 3.560988 -6.043234 -3.002400 -10.698900 31.271000 1.276196 -1.673234 -1.758040 4.727459 -0.691259 -2.545121 2.815836 -2.642820 17.483670 1.232500 -1.856000 9.040600 -86.107980 4.855861 25.583354 11.140857 -24.351079 -2.975568 -0.541340 -0.940219 5.907999 -7.125000 0.000000 0.000000 79.171212 -2.720870 3.561365 -17.691450 28.788999 -5.321178 0.452966 0.112310 11.846052 7.125000 0.000000 0.000000 
0.220060 17.090289 31.701019 2.735422 -45.678150 0.694715 -25.660892 -5.933262 -3.500329 8.614081 14.636281 53.783764 1.376201 -14.155780 21.644517 0.400400 -4.062600 -11.252800 29.838878 8.908869 -24.001345 -4.777978 -12.126234 39.697723 -0.595479 3.323900 -6.064574 -2.858600 -10.462500 30.487900 1.227263 -1.737185 -1.731606 4.538142 -0.726841 -2.466411 2.611447 -3.203165 17.376524 1.057500 -2.103900 9.050600 -85.783137 4.578200 25.077149 11.095515 -24.284314 -2.964794 -0.551295 -0.944276 6.216606 -7.125000 0.000000 0.000000 79.697737 -2.315028 3.099409 -17.799144 28.884013 -5.364218 0.463394 0.094043 11.883376 7.125000 0.000000 0.000000 
0.153207 17.119139 31.772748 2.832727 -45.520532 0.453454 -25.577492 -6.246702 -4.351625 8.931209 14.892619 54.948188 1.205853 -14.155046 18.742685 0.767300 -5.593600 -15.609600 29.843269 8.471731 -23.052328 -4.600488 -11.873846 38.883541 -0.564995 3.041703 -6.099395 -2.666800 -10.135100 29.415400 1.162653 -1.827312 -1.681814 4.456634 -0.776519 -2.392697 2.731895 -3.824894 17.035500 1.104900 -2.389100 8.907400 -85.540880 4.409231 24.447137 11.177209 -24.395349 -3.007538 -0.558698 -0.948316 6.567808 -7.125000 0.000000 0.000000 80.204345 -1.874167 2.292668 -17.790926 28.861712 -5.358521 0.450177 0.051166 12.488250 7.125000 0.000000 0.000000 
0.084164 17.163311 31.839502 2.932494 -45.461029 0.372771 -25.418985 -6.899860 -5.428770 9.214095 15.133197 55.958356 1.159534 -12.878316 17.047030 0.694800 -5.328300 -14.847400 29.818410 8.273627 -22.182479 -4.425042 -11.625074 38.073301 -0.542113 2.827643 -6.143222 -2.641900 -10.091500 29.273700 1.147040 -1.832505 -1.669833 4.545499 -0.778208 -2.325447 2.810330 -4.407078 16.779336 1.169600 -2.679200 8.805500 -85.521699 4.385806 23.791501 11.348369 -24.634742 -3.086548 -0.570471 -0.950119 6.811421 -7.125000 0.000000 0.000000 80.406506 -1.719917 2.399621 -17.951478 29.044877 -5.435471 0.458179 0.050413 12.096607 7.125000 0.000000 0.000000 
0.015420 17.212655 31.906157 3.037643 -45.644922 0.353144 -25.296810 -7.414669 -6.519833 9.445753 15.333267 56.772372 1.111371 -11.454610 15.563276 0.556100 -4.776800 -13.272900 29.768051 8.280982 -21.360437 -4.271392 -11.402476 37.354109 -0.539058 2.771672 -6.222449 -2.741700 -10.264700 29.838100 1.126297 -1.757718 -1.653097 4.616632 -0.742696 -2.194569 2.712248 -4.863145 16.612666 1.105200 -2.899100 8.768500 -85.468201 4.272068 23.221959 11.484605 -24.824995 -3.151810 -0.575959 -0.955183 6.780690 -7.125000 0.000000 0.000000 80.497897 -1.738301 3.400574 -18.268425 29.417480 -5.590161 0.474391 0.072927 10.994181 7.125000 0.000000 0.000000 
-0.053224 17.256428 31.973110 3.278952 -45.900445 0.194934 -25.324215 -7.605491 -7.463390 9.628326 15.486510 57.404424 1.035976 -10.348862 13.734345 0.669800 -5.233700 -14.576300 29.648365 8.300555 -20.554919 -4.117645 -11.177432 36.626736 -0.524097 2.618716 -6.291576 -2.656000 -10.116300 29.354000 1.096077 -1.721109 -1.669601 4.761796 -0.721077 -2.216887 2.660118 -5.290792 16.311695 1.056700 -3.098400 8.631700 -85.269294 4.175430 22.855708 11.515107 -24.876098 -3.173068 -0.576734 -0.961802 6.514772 -7.125000 0.000000 0.000000 80.524626 -2.029322 4.666926 -18.615738 29.845652 -5.769040 0.471192 0.080143 10.314103 7.125000 0.000000 0.000000 
-0.118984 17.289756 32.038869 3.317727 -46.206745 0.187097 -25.172825 -7.560868 -8.441699 9.770860 15.615169 57.893339 0.955437 -9.419693 11.708799 1.048100 -6.510400 -18.272800 29.687909 8.390767 -19.732763 -3.957860 -10.937657 35.861779 -0.496897 2.413999 -6.261931 -2.518800 -9.872000 28.563300 1.049663 -1.581666 -1.703343 4.756517 -0.645781 -2.312450 2.673661 -5.850564 16.008217 1.038100 -3.357100 8.494400 -84.839383 4.081255 22.974157 11.498737 -24.863438 -3.169864 -0.577513 -0.974081 5.734518 -7.125000 0.000000 0.000000 80.687017 -2.314967 5.469738 -18.874656 30.169489 -5.905983 0.459439 0.067252 10.031504 7.125000 0.000000 0.000000 
-0.187330 17.319303 32.104330 3.218889 -46.488099 0.336127 -24.817387 -7.639070 -9.511603 9.882093 15.734292 58.274464 0.880456 -8.283988 10.093901 1.214800 -6.991600 -19.690500 29.810000 8.607377 -18.813092 -3.787880 -10.675752 35.035803 -0.466436 2.195584 -6.217528 -2.617400 -10.048300 29.133400 0.994329 -1.375127 -1.709511 4.637699 -0.542802 -2.253605 2.717725 -6.398848 15.796609 1.028800 -3.606600 8.439400 -84.355933 3.958405 23.284741 11.608053 -25.021467 -3.217822 -0.569433 -0.997706 4.586327 -7.125000 0.000000 0.000000 81.006053 -2.326579 5.909286 -19.015512 30.341850 -5.978051 0.451395 0.048344 9.768368 7.125000 0.000000 0.000000 
-0.247518 17.355217 32.180237 3.135667 -46.617490 0.136815 -24.558189 -7.927228 -10.127154 9.963388 15.821088 58.542807 0.795256 -6.966671 8.835488 1.126200 -6.740700 -18.949400 29.930019 8.519205 -17.564712 -3.608171 -10.376134 34.130362 -0.421296 1.849888 -6.215836 -2.635700 -10.080500 29.237900 0.928258 -1.225685 -1.652619 4.399723 -0.474962 -2.201018 2.803489 -6.889512 15.583282 1.068800 -3.837700 8.378800 -84.051717 3.935341 23.343348 11.884914 -25.393977 -3.337590 -0.558103 -1.017591 3.691328 -7.125000 0.000000 0.000000 81.251331 -2.405872 6.622030 -19.317630 30.690609 -6.135490 0.455359 0.067434 9.204872 7.125000 0.000000 0.000000 
-0.307308 17.394314 32.254652 2.948314 -46.713728 0.094462 -24.244940 -8.322051 -10.790138 10.010814 15.890896 58.701250 0.711088 -5.853235 7.674817 1.249000 -7.085800 -19.969700 30.151372 8.512952 -16.391983 -3.424930 -10.068533 33.197887 -0.356510 1.359126 -6.212953 -2.593900 -10.006600 28.998200 0.897985 -1.197530 -1.629046 4.231537 -0.462045 -2.200105 2.748628 -7.241645 15.455562 1.053400 -4.016000 8.324600 -83.901230 4.058662 22.903538 12.184638 -25.794662 -3.475382 -0.546571 -1.020707 3.197906 -7.125000 0.000000 0.000000 81.254246 -2.756805 7.514555 -19.606570 31.063482 -6.302051 0.428578 0.058067 9.484947 7.125000 0.000000 0.000000 
-0.372073 17.425652 32.309567 2.679089 -47.517839 0.449296 -23.680438 -8.060831 -12.005047 10.012902 15.952108 58.716553 0.634614 -4.924703 6.650390 1.436700 -7.578300 -21.440300 30.481521 9.219091 -15.464970 -3.267572 -9.808454 32.397690 -0.304188 1.021362 -6.097571 -2.593100 -10.005300 28.993800 0.909270 -0.970831 -1.705459 4.333998 -0.339452 -2.351967 2.623929 -7.364094 15.274390 0.950200 -4.065100 8.276200 -83.650745 4.228653 22.572633 12.403756 -26.099267 -3.581885 -0.540620 -1.027850 2.395864 -7.125000 0.000000 0.000000 81.235771 -3.269397 9.460685 -20.098915 31.628741 -6.560996 0.429844 0.081378 9.451542 7.125000 0.000000 0.000000 
-0.431565 17.450424 32.375227 2.601192 -47.767304 0.535773 -23.360817 -8.182745 -12.909771 9.967055 15.972670 58.563156 0.548564 -3.955974 5.675954 1.512100 -7.765800 -22.004900 30.584714 9.473130 -14.674285 -3.162965 -9.627021 31.851661 -0.257181 0.641377 -6.191877 -2.510700 -9.857300 28.516000 0.832591 -0.876647 -1.710144 4.115655 -0.294682 -2.342209 2.670133 -7.643182 15.034741 0.928700 -4.177200 8.217200 -83.134637 4.230997 22.845847 12.645804 -26.428053 -3.691937 -0.533672 -1.051061 1.403781 -7.125000 0.000000 0.000000 81.498966 -3.462788 10.787277 -20.420498 31.985966 -6.724354 0.440987 0.088064 9.753691 7.125000 0.000000 0.000000 
-0.485187 17.465645 32.456705 3.035226 -47.214070 0.033615 -23.669879 -8.950810 -13.202853 9.865319 15.929881 58.203734 0.433803 -2.802356 4.447818 1.536600 -7.825500 -22.185300 30.214802 9.179601 -13.919930 -3.090261 -9.495451 31.460951 -0.207774 0.155492 -6.524054 -2.516800 -9.868400 28.551500 0.675952 -1.043515 -1.624886 3.686469 -0.392861 -2.094567 2.785061 -8.002926 14.836985 0.956100 -4.329800 8.207500 -82.601694 4.143683 23.312036 12.983130 -26.870444 -3.842727 -0.519343 -1.072319 0.531964 -7.125000 0.000000 0.000000 81.879843 -3.213069 10.672592 -20.247145 31.820369 -6.633519 0.414129 0.030535 10.991647 7.125000 0.000000 0.000000 
-0.548261 17.474001 32.510228 3.536397 -48.359732 -0.112770 -23.764269 -8.305937 -14.291317 9.736985 15.893303 57.767674 0.323949 -1.769691 3.053508 1.440000 -7.586600 -21.465300 29.957283 10.292132 -13.320196 -3.036849 -9.411020 31.189189 -0.194263 0.040829 -6.584045 -2.542400 -9.914600 28.700700 0.596641 -0.606334 -1.661622 3.866027 -0.172986 -2.084513 3.051048 -8.183707 14.464775 1.110700 -4.414100 8.063900 -82.265386 4.261783 23.498128 13.288084 -27.285927 -3.987838 -0.516538 -1.073448 -0.402013 -7.125000 0.000000 0.000000 81.980940 -3.143001 11.392326 -20.249108 31.843789 -6.638318 0.381111 0.008287 11.656150 7.125000 0.000000 0.000000 
